<svg width="45" height="45" viewBox="0 0 45 45" fill="none" xmlns="http://www.w3.org/2000/svg">
<path d="M16.1719 15.9375H7.73437C7.23709 15.9375 6.76018 15.74 6.40855 15.3883C6.05692 15.0367 5.85938 14.5598 5.85938 14.0625V5.625C5.85938 5.12772 6.05692 4.65081 6.40855 4.29917C6.76018 3.94754 7.23709 3.75 7.73437 3.75C8.23166 3.75 8.70857 3.94754 9.0602 4.29917C9.41183 4.65081 9.60937 5.12772 9.60937 5.625V12.1875H16.1719C16.6692 12.1875 17.1461 12.385 17.4977 12.7367C17.8493 13.0883 18.0469 13.5652 18.0469 14.0625C18.0469 14.5598 17.8493 15.0367 17.4977 15.3883C17.1461 15.74 16.6692 15.9375 16.1719 15.9375Z" fill="#D06300"/>
<path d="M39.3752 24.375C38.878 24.375 38.4011 24.1775 38.0494 23.8258C37.6978 23.4742 37.5002 22.9973 37.5002 22.5C37.5017 19.1991 36.4136 15.9901 34.4048 13.3708C32.396 10.7516 29.5789 8.86856 26.3906 8.01399C23.2022 7.15942 19.821 7.38109 16.7715 8.64459C13.7221 9.9081 11.1749 12.1428 9.52525 15.0019C9.27611 15.4323 8.8662 15.7461 8.3857 15.8742C7.90519 16.0024 7.39346 15.9345 6.96306 15.6853C6.53266 15.4362 6.21886 15.0263 6.09069 14.5458C5.96252 14.0653 6.03048 13.5535 6.27962 13.1231C8.3426 9.54983 11.5272 6.75722 15.3393 5.17855C19.1514 3.59987 23.3779 3.32339 27.3632 4.39199C31.3485 5.46058 34.8697 7.81452 37.3806 11.0886C39.8915 14.3627 41.2517 18.3739 41.2502 22.5C41.2502 22.9973 41.0527 23.4742 40.7011 23.8258C40.3494 24.1775 39.8725 24.375 39.3752 24.375ZM37.2659 41.25C36.7686 41.25 36.2917 41.0525 35.94 40.7008C35.5884 40.3492 35.3909 39.8723 35.3909 39.375V32.8125H28.8284C28.3311 32.8125 27.8542 32.615 27.5025 32.2633C27.1509 31.9117 26.9534 31.4348 26.9534 30.9375C26.9534 30.4402 27.1509 29.9633 27.5025 29.6117C27.8542 29.2601 28.3311 29.0625 28.8284 29.0625H37.2659C37.7632 29.0625 38.2401 29.2601 38.5917 29.6117C38.9433 29.9633 39.1409 30.4402 39.1409 30.9375V39.375C39.1409 39.8723 38.9433 40.3492 38.5917 40.7008C38.2401 41.0525 37.7632 41.25 37.2659 41.25Z" fill="#D06300"/>
<path d="M22.5 41.25C17.529 41.244 12.7633 39.2667 9.24832 35.7517C5.73331 32.2367 3.75595 27.471 3.75 22.5C3.75 22.0027 3.94754 21.5258 4.29917 21.1742C4.65081 20.8225 5.12772 20.625 5.625 20.625C6.12228 20.625 6.59919 20.8225 6.95083 21.1742C7.30246 21.5258 7.5 22.0027 7.5 22.5C7.49857 25.8009 8.58667 29.0099 10.5954 31.6292C12.6042 34.2484 15.4214 36.1315 18.6097 36.986C21.798 37.8406 25.1793 37.6189 28.2287 36.3554C31.2782 35.0919 33.8254 32.8572 35.475 29.9981C35.5984 29.785 35.7625 29.5983 35.958 29.4486C36.1535 29.2989 36.3766 29.1892 36.6145 29.1258C36.8525 29.0623 37.1006 29.0463 37.3447 29.0787C37.5888 29.1111 37.8241 29.1913 38.0372 29.3147C38.2503 29.438 38.437 29.6022 38.5867 29.7977C38.7364 29.9932 38.8461 30.2163 38.9095 30.4542C38.973 30.6922 38.989 30.9402 38.9566 31.1843C38.9242 31.4284 38.844 31.6638 38.7206 31.8769C37.0716 34.7203 34.7062 37.0819 31.8602 38.7265C29.0142 40.371 25.787 41.2411 22.5 41.25Z" fill="#D06300"/>
</svg>
