<svg width="55" height="43" viewBox="0 0 55 43" fill="none" xmlns="http://www.w3.org/2000/svg">
<path d="M1.5 3C1.5 2.17157 2.17157 1.5 3 1.5H22.835C23.2284 1.5 23.606 1.6545 23.8865 1.93021L33.0514 10.9381C33.3384 11.2201 33.5 11.6055 33.5 12.0079V40C33.5 40.8284 32.8284 41.5 32 41.5H3C2.17157 41.5 1.5 40.8284 1.5 40V3Z" stroke="black" stroke-width="3"/>
<path d="M21.875 0L35 12.9H21.875V0Z" fill="black"/>
<line x1="8.75" y1="24.3" x2="26.25" y2="24.3" stroke="black" stroke-width="3"/>
<line x1="8.75" y1="30.75" x2="19.6875" y2="30.75" stroke="black" stroke-width="3"/>
<path d="M47.2148 30.7027C43.2894 -4.84367 27.7469 34.8202 27.6596 35.2127L23.3373 30.7261" stroke="#29E0C1" stroke-width="3.5" stroke-linecap="round"/>
<path d="M37.8164 24.8864H43.6006" stroke="#29E0C1" stroke-width="3.5" stroke-linecap="round"/>
<path d="M53 30.7739V23.4055" stroke="#29E0C1" stroke-width="3.5" stroke-linecap="round"/>
<path d="M53 17.6173V17.6173" stroke="#29E0C1" stroke-width="3.5" stroke-linecap="round"/>
</svg>
