<svg width="26" height="26" viewBox="0 0 26 26" fill="none" xmlns="http://www.w3.org/2000/svg">
<rect y="8" width="18" height="14" rx="1" fill="url(#paint0_linear_2883_13969)"/>
<path d="M3 10.5H11" stroke="white" stroke-linecap="round"/>
<path d="M3 13.5H12" stroke="white" stroke-linecap="round"/>
<path d="M3 16.5H13" stroke="white" stroke-linecap="round"/>
<rect x="6" y="12" width="18" height="14" rx="1" fill="url(#paint1_linear_2883_13969)"/>
<path d="M9 14.5H17" stroke="white" stroke-linecap="round"/>
<path d="M9 17.5H18" stroke="white" stroke-linecap="round"/>
<path d="M9 20.5H19" stroke="white" stroke-linecap="round"/>
<path d="M13.5 1L14.5 2.5L16 3.5L14.5 4.5L13.5 6L12.5 4.5L11 3.5L12.5 2.5L13.5 1Z" fill="#F8A23E"/>
<path d="M24.5 7L25.1 7.9L26 8.5L25.1 9.1L24.5 10L23.9 9.1L23 8.5L23.9 7.9L24.5 7Z" fill="#F8A23E"/>
<path d="M22 0L22.8 1.2L24 2L22.8 2.8L22 4L21.2 2.8L20 2L21.2 1.2L22 0Z" fill="#F8A23E"/>
<defs>
<linearGradient id="paint0_linear_2883_13969" x1="9" y1="8" x2="9" y2="22" gradientUnits="userSpaceOnUse">
<stop stop-color="#E98613"/>
<stop offset="1" stop-color="#FFE7CC"/>
</linearGradient>
<linearGradient id="paint1_linear_2883_13969" x1="15" y1="12" x2="15" y2="26" gradientUnits="userSpaceOnUse">
<stop stop-color="#E98613"/>
<stop offset="1" stop-color="#FFE7CC"/>
</linearGradient>
</defs>
</svg>
